<?xml version="1.0" encoding="UTF-8" standalone="no"?>
<!DOCTYPE svg PUBLIC "-//W3C//DTD SVG 1.1//EN"
 "http://www.w3.org/Graphics/SVG/1.1/DTD/svg11.dtd">
<!-- Generated by graphviz version 2.47.0 (20210316.0004)
 -->
<!-- Title: dependencies Pages: 1 -->
<svg width="1401pt" height="284pt"
 viewBox="0.00 0.00 1401.00 284.00" xmlns="http://www.w3.org/2000/svg" xmlns:xlink="http://www.w3.org/1999/xlink">
<g id="graph0" class="graph" transform="scale(1 1) rotate(0) translate(4 280)">
<title>dependencies</title>
<polygon fill="white" stroke="transparent" points="-4,4 -4,-280 1397,-280 1397,4 -4,4"/>
<text text-anchor="start" x="675.51" y="-42.4" font-family="Times-12" font-weight="bold" font-size="14.00">Legend</text>
<polygon fill="#ffffb3" stroke="transparent" points="462.5,-10 462.5,-30 482.5,-30 482.5,-10 462.5,-10"/>
<text text-anchor="start" x="486.13" y="-15.4" font-family="Times-12" font-size="14.00"> &#160;Declarations</text>
<polygon fill="#8dd3c7" stroke="transparent" points="575.5,-10 575.5,-30 595.5,-30 595.5,-10 575.5,-10"/>
<text text-anchor="start" x="599.23" y="-15.4" font-family="Times-12" font-size="14.00"> &#160;Module</text>
<polygon fill="#80b1d3" stroke="transparent" points="661.5,-10 661.5,-30 681.5,-30 681.5,-10 661.5,-10"/>
<text text-anchor="start" x="685.28" y="-15.4" font-family="Times-12" font-size="14.00"> &#160;Bootstrap</text>
<polygon fill="#fdb462" stroke="transparent" points="758.5,-10 758.5,-30 778.5,-30 778.5,-10 758.5,-10"/>
<text text-anchor="start" x="782.17" y="-15.4" font-family="Times-12" font-size="14.00"> &#160;Providers</text>
<polygon fill="#fb8072" stroke="transparent" points="854.5,-10 854.5,-30 874.5,-30 874.5,-10 854.5,-10"/>
<text text-anchor="start" x="878.23" y="-15.4" font-family="Times-12" font-size="14.00"> &#160;Exports</text>
<g id="clust1" class="cluster">
<title>cluster_ElementsModule</title>
<polygon fill="none" stroke="black" stroke-dasharray="1,5" points="8,-70 8,-268 1385,-268 1385,-70 8,-70"/>
</g>
<g id="clust2" class="cluster">
<title>cluster_ElementsModule_declarations</title>
<polygon fill="none" stroke="black" points="37,-78 37,-130 1372,-130 1372,-78 37,-78"/>
</g>
<g id="clust12" class="cluster">
<title>cluster_ElementsModule_exports</title>
<polygon fill="none" stroke="black" points="16,-208 16,-260 1377,-260 1377,-208 16,-208"/>
</g>
<!-- AppLoaderComponent -->
<g id="node1" class="node">
<title>AppLoaderComponent</title>
<polygon fill="#ffffb3" stroke="black" points="1363.58,-122 1218.42,-122 1218.42,-86 1363.58,-86 1363.58,-122"/>
<text text-anchor="middle" x="1291" y="-99.8" font-family="Times,serif" font-size="14.00">AppLoaderComponent</text>
</g>
<!-- ElementsModule -->
<g id="node9" class="node">
<title>ElementsModule</title>
<polygon fill="#8dd3c7" stroke="black" points="826.65,-187 823.65,-191 802.65,-191 799.65,-187 715.35,-187 715.35,-151 826.65,-151 826.65,-187"/>
<text text-anchor="middle" x="771" y="-164.8" font-family="Times,serif" font-size="14.00">ElementsModule</text>
</g>
<!-- AppLoaderComponent&#45;&gt;ElementsModule -->
<g id="edge1" class="edge">
<title>AppLoaderComponent&#45;&gt;ElementsModule</title>
<path fill="none" stroke="black" d="M1327.83,-122.3C1327.83,-140.27 1327.83,-165 1327.83,-165 1327.83,-165 836.68,-165 836.68,-165"/>
<polygon fill="black" stroke="black" points="836.68,-161.5 826.68,-165 836.68,-168.5 836.68,-161.5"/>
</g>
<!-- AvatarPhotoComponent -->
<g id="node2" class="node">
<title>AvatarPhotoComponent</title>
<polygon fill="#ffffb3" stroke="black" points="1200.09,-122 1047.91,-122 1047.91,-86 1200.09,-86 1200.09,-122"/>
<text text-anchor="middle" x="1124" y="-99.8" font-family="Times,serif" font-size="14.00">AvatarPhotoComponent</text>
</g>
<!-- AvatarPhotoComponent&#45;&gt;ElementsModule -->
<g id="edge2" class="edge">
<title>AvatarPhotoComponent&#45;&gt;ElementsModule</title>
<path fill="none" stroke="black" d="M1149.35,-122.03C1149.35,-138.4 1149.35,-160 1149.35,-160 1149.35,-160 836.83,-160 836.83,-160"/>
<polygon fill="black" stroke="black" points="836.83,-156.5 826.83,-160 836.83,-163.5 836.83,-156.5"/>
</g>
<!-- CategoryCardComponent -->
<g id="node3" class="node">
<title>CategoryCardComponent</title>
<polygon fill="#ffffb3" stroke="black" points="1029.86,-122 870.14,-122 870.14,-86 1029.86,-86 1029.86,-122"/>
<text text-anchor="middle" x="950" y="-99.8" font-family="Times,serif" font-size="14.00">CategoryCardComponent</text>
</g>
<!-- CategoryCardComponent&#45;&gt;ElementsModule -->
<g id="edge3" class="edge">
<title>CategoryCardComponent&#45;&gt;ElementsModule</title>
<path fill="none" stroke="black" d="M923.27,-122.19C923.27,-137.18 923.27,-156 923.27,-156 923.27,-156 836.84,-156 836.84,-156"/>
<polygon fill="black" stroke="black" points="836.84,-152.5 826.84,-156 836.84,-159.5 836.84,-152.5"/>
</g>
<!-- DiscussCardComponent -->
<g id="node4" class="node">
<title>DiscussCardComponent</title>
<polygon fill="#ffffb3" stroke="black" points="852.09,-122 699.91,-122 699.91,-86 852.09,-86 852.09,-122"/>
<text text-anchor="middle" x="776" y="-99.8" font-family="Times,serif" font-size="14.00">DiscussCardComponent</text>
</g>
<!-- DiscussCardComponent&#45;&gt;ElementsModule -->
<g id="edge4" class="edge">
<title>DiscussCardComponent&#45;&gt;ElementsModule</title>
<path fill="none" stroke="black" d="M771,-122.11C771,-122.11 771,-140.99 771,-140.99"/>
<polygon fill="black" stroke="black" points="767.5,-140.99 771,-150.99 774.5,-140.99 767.5,-140.99"/>
</g>
<!-- LoadAlertComponent -->
<g id="node5" class="node">
<title>LoadAlertComponent</title>
<polygon fill="#ffffb3" stroke="black" points="682.36,-122 543.64,-122 543.64,-86 682.36,-86 682.36,-122"/>
<text text-anchor="middle" x="613" y="-99.8" font-family="Times,serif" font-size="14.00">LoadAlertComponent</text>
</g>
<!-- LoadAlertComponent&#45;&gt;ElementsModule -->
<g id="edge5" class="edge">
<title>LoadAlertComponent&#45;&gt;ElementsModule</title>
<path fill="none" stroke="black" d="M678.81,-122.12C678.81,-136.78 678.81,-155 678.81,-155 678.81,-155 705.24,-155 705.24,-155"/>
<polygon fill="black" stroke="black" points="705.24,-158.5 715.24,-155 705.24,-151.5 705.24,-158.5"/>
</g>
<!-- PostReplyComponent -->
<g id="node6" class="node">
<title>PostReplyComponent</title>
<polygon fill="#ffffb3" stroke="black" points="525.39,-122 386.61,-122 386.61,-86 525.39,-86 525.39,-122"/>
<text text-anchor="middle" x="456" y="-99.8" font-family="Times,serif" font-size="14.00">PostReplyComponent</text>
</g>
<!-- PostReplyComponent&#45;&gt;ElementsModule -->
<g id="edge6" class="edge">
<title>PostReplyComponent&#45;&gt;ElementsModule</title>
<path fill="none" stroke="black" d="M520.32,-122.01C520.32,-138.05 520.32,-159 520.32,-159 520.32,-159 705.05,-159 705.05,-159"/>
<polygon fill="black" stroke="black" points="705.05,-162.5 715.05,-159 705.05,-155.5 705.05,-162.5"/>
</g>
<!-- RelatedDiscussionComponent -->
<g id="node7" class="node">
<title>RelatedDiscussionComponent</title>
<polygon fill="#ffffb3" stroke="black" points="368.53,-122 183.47,-122 183.47,-86 368.53,-86 368.53,-122"/>
<text text-anchor="middle" x="276" y="-99.8" font-family="Times,serif" font-size="14.00">RelatedDiscussionComponent</text>
</g>
<!-- RelatedDiscussionComponent&#45;&gt;ElementsModule -->
<g id="edge7" class="edge">
<title>RelatedDiscussionComponent&#45;&gt;ElementsModule</title>
<path fill="none" stroke="black" d="M361.64,-122.02C361.64,-139.37 361.64,-163 361.64,-163 361.64,-163 704.94,-163 704.94,-163"/>
<polygon fill="black" stroke="black" points="704.94,-166.5 714.94,-163 704.94,-159.5 704.94,-166.5"/>
</g>
<!-- SlidersComponent -->
<g id="node8" class="node">
<title>SlidersComponent</title>
<polygon fill="#ffffb3" stroke="black" points="165.22,-122 44.78,-122 44.78,-86 165.22,-86 165.22,-122"/>
<text text-anchor="middle" x="105" y="-99.8" font-family="Times,serif" font-size="14.00">SlidersComponent</text>
</g>
<!-- SlidersComponent&#45;&gt;ElementsModule -->
<g id="edge8" class="edge">
<title>SlidersComponent&#45;&gt;ElementsModule</title>
<path fill="none" stroke="black" d="M156.48,-122.22C156.48,-140.83 156.48,-167 156.48,-167 156.48,-167 705.11,-167 705.11,-167"/>
<polygon fill="black" stroke="black" points="705.11,-170.5 715.11,-167 705.11,-163.5 705.11,-170.5"/>
</g>
<!-- AppLoaderComponent  -->
<g id="node10" class="node">
<title>AppLoaderComponent </title>
<polygon fill="#fb8072" stroke="black" points="1369.08,-252 1220.92,-252 1220.92,-216 1369.08,-216 1369.08,-252"/>
<text text-anchor="middle" x="1295" y="-229.8" font-family="Times,serif" font-size="14.00">AppLoaderComponent </text>
</g>
<!-- ElementsModule&#45;&gt;AppLoaderComponent  -->
<g id="edge9" class="edge">
<title>ElementsModule&#45;&gt;AppLoaderComponent </title>
<path fill="none" stroke="black" stroke-dasharray="5,2" d="M826.68,-174C954.19,-174 1256.42,-174 1256.42,-174 1256.42,-174 1256.42,-206 1256.42,-206"/>
<polygon fill="black" stroke="black" points="1252.92,-206 1256.42,-216 1259.92,-206 1252.92,-206"/>
</g>
<!-- ElementsModule&#45;&gt;AppLoaderComponent  -->
<g id="edge10" class="edge">
<title>ElementsModule&#45;&gt;AppLoaderComponent </title>
<path fill="none" stroke="black" stroke-dasharray="5,2" d="M826.77,-169C961.21,-169 1292.12,-169 1292.12,-169 1292.12,-169 1292.12,-205.89 1292.12,-205.89"/>
<polygon fill="black" stroke="black" points="1288.63,-205.89 1292.12,-215.89 1295.63,-205.89 1288.63,-205.89"/>
</g>
<!-- AvatarPhotoComponent  -->
<g id="node11" class="node">
<title>AvatarPhotoComponent </title>
<polygon fill="#fb8072" stroke="black" points="1202.59,-252 1047.41,-252 1047.41,-216 1202.59,-216 1202.59,-252"/>
<text text-anchor="middle" x="1125" y="-229.8" font-family="Times,serif" font-size="14.00">AvatarPhotoComponent </text>
</g>
<!-- ElementsModule&#45;&gt;AvatarPhotoComponent  -->
<g id="edge11" class="edge">
<title>ElementsModule&#45;&gt;AvatarPhotoComponent </title>
<path fill="none" stroke="black" stroke-dasharray="5,2" d="M826.95,-178C920.53,-178 1098.65,-178 1098.65,-178 1098.65,-178 1098.65,-205.97 1098.65,-205.97"/>
<polygon fill="black" stroke="black" points="1095.15,-205.97 1098.65,-215.97 1102.15,-205.97 1095.15,-205.97"/>
</g>
<!-- CategoryCardComponent  -->
<g id="node12" class="node">
<title>CategoryCardComponent </title>
<polygon fill="#fb8072" stroke="black" points="1029.86,-252 866.14,-252 866.14,-216 1029.86,-216 1029.86,-252"/>
<text text-anchor="middle" x="948" y="-229.8" font-family="Times,serif" font-size="14.00">CategoryCardComponent </text>
</g>
<!-- ElementsModule&#45;&gt;CategoryCardComponent  -->
<g id="edge12" class="edge">
<title>ElementsModule&#45;&gt;CategoryCardComponent </title>
<path fill="none" stroke="black" stroke-dasharray="5,2" d="M826.88,-183C887.72,-183 976.48,-183 976.48,-183 976.48,-183 976.48,-205.88 976.48,-205.88"/>
<polygon fill="black" stroke="black" points="972.98,-205.88 976.48,-215.88 979.98,-205.88 972.98,-205.88"/>
</g>
<!-- DiscussCardComponent  -->
<g id="node13" class="node">
<title>DiscussCardComponent </title>
<polygon fill="#fb8072" stroke="black" points="848.59,-252 693.41,-252 693.41,-216 848.59,-216 848.59,-252"/>
<text text-anchor="middle" x="771" y="-229.8" font-family="Times,serif" font-size="14.00">DiscussCardComponent </text>
</g>
<!-- ElementsModule&#45;&gt;DiscussCardComponent  -->
<g id="edge13" class="edge">
<title>ElementsModule&#45;&gt;DiscussCardComponent </title>
<path fill="none" stroke="black" stroke-dasharray="5,2" d="M771,-187.11C771,-187.11 771,-205.99 771,-205.99"/>
<polygon fill="black" stroke="black" points="767.5,-205.99 771,-215.99 774.5,-205.99 767.5,-205.99"/>
</g>
<!-- LoadAlertComponent  -->
<g id="node14" class="node">
<title>LoadAlertComponent </title>
<polygon fill="#fb8072" stroke="black" points="675.36,-252 532.64,-252 532.64,-216 675.36,-216 675.36,-252"/>
<text text-anchor="middle" x="604" y="-229.8" font-family="Times,serif" font-size="14.00">LoadAlertComponent </text>
</g>
<!-- ElementsModule&#45;&gt;LoadAlertComponent  -->
<g id="edge14" class="edge">
<title>ElementsModule&#45;&gt;LoadAlertComponent </title>
<path fill="none" stroke="black" stroke-dasharray="5,2" d="M714.93,-183C668.24,-183 609.38,-183 609.38,-183 609.38,-183 609.38,-205.88 609.38,-205.88"/>
<polygon fill="black" stroke="black" points="605.88,-205.88 609.38,-215.88 612.88,-205.88 605.88,-205.88"/>
</g>
<!-- PostReplyComponent  -->
<g id="node15" class="node">
<title>PostReplyComponent </title>
<polygon fill="#fb8072" stroke="black" points="515.39,-252 372.61,-252 372.61,-216 515.39,-216 515.39,-252"/>
<text text-anchor="middle" x="444" y="-229.8" font-family="Times,serif" font-size="14.00">PostReplyComponent </text>
</g>
<!-- ElementsModule&#45;&gt;PostReplyComponent  -->
<g id="edge15" class="edge">
<title>ElementsModule&#45;&gt;PostReplyComponent </title>
<path fill="none" stroke="black" stroke-dasharray="5,2" d="M715.24,-179C623.52,-179 450.88,-179 450.88,-179 450.88,-179 450.88,-205.99 450.88,-205.99"/>
<polygon fill="black" stroke="black" points="447.38,-205.99 450.88,-215.99 454.38,-205.99 447.38,-205.99"/>
</g>
<!-- RelatedDiscussionComponent  -->
<g id="node16" class="node">
<title>RelatedDiscussionComponent </title>
<polygon fill="#fb8072" stroke="black" points="354.53,-252 165.47,-252 165.47,-216 354.53,-216 354.53,-252"/>
<text text-anchor="middle" x="260" y="-229.8" font-family="Times,serif" font-size="14.00">RelatedDiscussionComponent </text>
</g>
<!-- ElementsModule&#45;&gt;RelatedDiscussionComponent  -->
<g id="edge16" class="edge">
<title>ElementsModule&#45;&gt;RelatedDiscussionComponent </title>
<path fill="none" stroke="black" stroke-dasharray="5,2" d="M715.35,-175C584.61,-175 268.88,-175 268.88,-175 268.88,-175 268.88,-205.98 268.88,-205.98"/>
<polygon fill="black" stroke="black" points="265.38,-205.98 268.88,-215.98 272.38,-205.98 265.38,-205.98"/>
</g>
<!-- SlidersComponent  -->
<g id="node17" class="node">
<title>SlidersComponent </title>
<polygon fill="#fb8072" stroke="black" points="147.72,-252 24.28,-252 24.28,-216 147.72,-216 147.72,-252"/>
<text text-anchor="middle" x="86" y="-229.8" font-family="Times,serif" font-size="14.00">SlidersComponent </text>
</g>
<!-- ElementsModule&#45;&gt;SlidersComponent  -->
<g id="edge17" class="edge">
<title>ElementsModule&#45;&gt;SlidersComponent </title>
<path fill="none" stroke="black" stroke-dasharray="5,2" d="M715.22,-171C553.59,-171 96.38,-171 96.38,-171 96.38,-171 96.38,-205.78 96.38,-205.78"/>
<polygon fill="black" stroke="black" points="92.88,-205.78 96.38,-215.78 99.88,-205.78 92.88,-205.78"/>
</g>
</g>
</svg>
