<?xml version="1.0" encoding="UTF-8" standalone="no"?>
<!DOCTYPE svg PUBLIC "-//W3C//DTD SVG 1.1//EN"
 "http://www.w3.org/Graphics/SVG/1.1/DTD/svg11.dtd">
<!-- Generated by graphviz version 2.47.0 (20210316.0004)
 -->
<!-- Title: dependencies Pages: 1 -->
<svg width="1500pt" height="284pt"
 viewBox="0.00 0.00 1500.00 284.00" xmlns="http://www.w3.org/2000/svg" xmlns:xlink="http://www.w3.org/1999/xlink">
<g id="graph0" class="graph" transform="scale(1 1) rotate(0) translate(4 280)">
<title>dependencies</title>
<polygon fill="white" stroke="transparent" points="-4,4 -4,-280 1496,-280 1496,4 -4,4"/>
<text text-anchor="start" x="725.01" y="-42.4" font-family="Times-12" font-weight="bold" font-size="14.00">Legend</text>
<polygon fill="#ffffb3" stroke="transparent" points="512,-10 512,-30 532,-30 532,-10 512,-10"/>
<text text-anchor="start" x="535.63" y="-15.4" font-family="Times-12" font-size="14.00"> &#160;Declarations</text>
<polygon fill="#8dd3c7" stroke="transparent" points="625,-10 625,-30 645,-30 645,-10 625,-10"/>
<text text-anchor="start" x="648.73" y="-15.4" font-family="Times-12" font-size="14.00"> &#160;Module</text>
<polygon fill="#80b1d3" stroke="transparent" points="711,-10 711,-30 731,-30 731,-10 711,-10"/>
<text text-anchor="start" x="734.78" y="-15.4" font-family="Times-12" font-size="14.00"> &#160;Bootstrap</text>
<polygon fill="#fdb462" stroke="transparent" points="808,-10 808,-30 828,-30 828,-10 808,-10"/>
<text text-anchor="start" x="831.67" y="-15.4" font-family="Times-12" font-size="14.00"> &#160;Providers</text>
<polygon fill="#fb8072" stroke="transparent" points="904,-10 904,-30 924,-30 924,-10 904,-10"/>
<text text-anchor="start" x="927.73" y="-15.4" font-family="Times-12" font-size="14.00"> &#160;Exports</text>
<g id="clust1" class="cluster">
<title>cluster_DiscussionUiModule</title>
<polygon fill="none" stroke="black" stroke-dasharray="1,5" points="8,-70 8,-268 1484,-268 1484,-70 8,-70"/>
</g>
<g id="clust2" class="cluster">
<title>cluster_DiscussionUiModule_declarations</title>
<polygon fill="none" stroke="black" points="792,-78 792,-130 1476,-130 1476,-78 792,-78"/>
</g>
<g id="clust8" class="cluster">
<title>cluster_DiscussionUiModule_exports</title>
<polygon fill="none" stroke="black" points="516,-208 516,-260 1060,-260 1060,-208 516,-208"/>
</g>
<g id="clust7" class="cluster">
<title>cluster_DiscussionUiModule_imports</title>
<polygon fill="none" stroke="black" points="472,-78 472,-130 784,-130 784,-78 472,-78"/>
</g>
<g id="clust10" class="cluster">
<title>cluster_DiscussionUiModule_providers</title>
<polygon fill="none" stroke="black" points="16,-78 16,-130 464,-130 464,-78 16,-78"/>
</g>
<!-- BaseWrapperComponent -->
<g id="node1" class="node">
<title>BaseWrapperComponent</title>
<polygon fill="#ffffb3" stroke="black" points="1467.51,-122 1310.49,-122 1310.49,-86 1467.51,-86 1467.51,-122"/>
<text text-anchor="middle" x="1389" y="-99.8" font-family="Times,serif" font-size="14.00">BaseWrapperComponent</text>
</g>
<!-- DiscussionUiModule -->
<g id="node5" class="node">
<title>DiscussionUiModule</title>
<polygon fill="#8dd3c7" stroke="black" points="851.48,-187 848.48,-191 827.48,-191 824.48,-187 716.52,-187 716.52,-151 851.48,-151 851.48,-187"/>
<text text-anchor="middle" x="784" y="-164.8" font-family="Times,serif" font-size="14.00">DiscussionUiModule</text>
</g>
<!-- BaseWrapperComponent&#45;&gt;DiscussionUiModule -->
<g id="edge1" class="edge">
<title>BaseWrapperComponent&#45;&gt;DiscussionUiModule</title>
<path fill="none" stroke="black" d="M1389,-122.13C1389,-142.57 1389,-173 1389,-173 1389,-173 861.64,-173 861.64,-173"/>
<polygon fill="black" stroke="black" points="861.64,-169.5 851.64,-173 861.64,-176.5 861.64,-169.5"/>
</g>
<!-- CategoryWidgetComponent -->
<g id="node2" class="node">
<title>CategoryWidgetComponent</title>
<polygon fill="#ffffb3" stroke="black" points="1291.86,-122 1118.14,-122 1118.14,-86 1291.86,-86 1291.86,-122"/>
<text text-anchor="middle" x="1205" y="-99.8" font-family="Times,serif" font-size="14.00">CategoryWidgetComponent</text>
</g>
<!-- CategoryWidgetComponent&#45;&gt;DiscussionUiModule -->
<g id="edge2" class="edge">
<title>CategoryWidgetComponent&#45;&gt;DiscussionUiModule</title>
<path fill="none" stroke="black" d="M1205,-122.27C1205,-140.56 1205,-166 1205,-166 1205,-166 861.64,-166 861.64,-166"/>
<polygon fill="black" stroke="black" points="861.64,-162.5 851.64,-166 861.64,-169.5 861.64,-162.5"/>
</g>
<!-- LibEntryComponent -->
<g id="node3" class="node">
<title>LibEntryComponent</title>
<polygon fill="#ffffb3" stroke="black" points="1099.88,-122 968.12,-122 968.12,-86 1099.88,-86 1099.88,-122"/>
<text text-anchor="middle" x="1034" y="-99.8" font-family="Times,serif" font-size="14.00">LibEntryComponent</text>
</g>
<!-- LibEntryComponent&#45;&gt;DiscussionUiModule -->
<g id="edge3" class="edge">
<title>LibEntryComponent&#45;&gt;DiscussionUiModule</title>
<path fill="none" stroke="black" d="M1009.78,-122.01C1009.78,-138.05 1009.78,-159 1009.78,-159 1009.78,-159 861.74,-159 861.74,-159"/>
<polygon fill="black" stroke="black" points="861.74,-155.5 851.74,-159 861.74,-162.5 861.74,-155.5"/>
</g>
<!-- TagsWidgetComponent -->
<g id="node4" class="node">
<title>TagsWidgetComponent</title>
<polygon fill="#ffffb3" stroke="black" points="949.75,-122 800.25,-122 800.25,-86 949.75,-86 949.75,-122"/>
<text text-anchor="middle" x="875" y="-99.8" font-family="Times,serif" font-size="14.00">TagsWidgetComponent</text>
</g>
<!-- TagsWidgetComponent&#45;&gt;DiscussionUiModule -->
<g id="edge4" class="edge">
<title>TagsWidgetComponent&#45;&gt;DiscussionUiModule</title>
<path fill="none" stroke="black" d="M825.81,-122.11C825.81,-122.11 825.81,-140.99 825.81,-140.99"/>
<polygon fill="black" stroke="black" points="822.31,-140.99 825.81,-150.99 829.31,-140.99 822.31,-140.99"/>
</g>
<!-- BaseWrapperComponent  -->
<g id="node8" class="node">
<title>BaseWrapperComponent </title>
<polygon fill="#fb8072" stroke="black" points="1051.51,-252 890.49,-252 890.49,-216 1051.51,-216 1051.51,-252"/>
<text text-anchor="middle" x="971" y="-229.8" font-family="Times,serif" font-size="14.00">BaseWrapperComponent </text>
</g>
<!-- DiscussionUiModule&#45;&gt;BaseWrapperComponent  -->
<g id="edge7" class="edge">
<title>DiscussionUiModule&#45;&gt;BaseWrapperComponent </title>
<path fill="none" stroke="black" stroke-dasharray="5,2" d="M851.69,-180C885.87,-180 920.19,-180 920.19,-180 920.19,-180 920.19,-205.72 920.19,-205.72"/>
<polygon fill="black" stroke="black" points="916.69,-205.72 920.19,-215.72 923.69,-205.72 916.69,-205.72"/>
</g>
<!-- CategoryWidgetComponent  -->
<g id="node9" class="node">
<title>CategoryWidgetComponent </title>
<polygon fill="#fb8072" stroke="black" points="872.86,-252 695.14,-252 695.14,-216 872.86,-216 872.86,-252"/>
<text text-anchor="middle" x="784" y="-229.8" font-family="Times,serif" font-size="14.00">CategoryWidgetComponent </text>
</g>
<!-- DiscussionUiModule&#45;&gt;CategoryWidgetComponent  -->
<g id="edge8" class="edge">
<title>DiscussionUiModule&#45;&gt;CategoryWidgetComponent </title>
<path fill="none" stroke="black" stroke-dasharray="5,2" d="M784,-187.11C784,-187.11 784,-205.99 784,-205.99"/>
<polygon fill="black" stroke="black" points="780.5,-205.99 784,-215.99 787.5,-205.99 780.5,-205.99"/>
</g>
<!-- TagsWidgetComponent  -->
<g id="node10" class="node">
<title>TagsWidgetComponent </title>
<polygon fill="#fb8072" stroke="black" points="677.75,-252 524.25,-252 524.25,-216 677.75,-216 677.75,-252"/>
<text text-anchor="middle" x="601" y="-229.8" font-family="Times,serif" font-size="14.00">TagsWidgetComponent </text>
</g>
<!-- DiscussionUiModule&#45;&gt;TagsWidgetComponent  -->
<g id="edge9" class="edge">
<title>DiscussionUiModule&#45;&gt;TagsWidgetComponent </title>
<path fill="none" stroke="black" stroke-dasharray="5,2" d="M716.36,-180C680.5,-180 643.79,-180 643.79,-180 643.79,-180 643.79,-205.72 643.79,-205.72"/>
<polygon fill="black" stroke="black" points="640.29,-205.72 643.79,-215.72 647.29,-205.72 640.29,-205.72"/>
</g>
<!-- DiscussionRoutingModule -->
<g id="node6" class="node">
<title>DiscussionRoutingModule</title>
<polygon fill="#8dd3c7" stroke="black" points="776.1,-122 773.1,-126 752.1,-126 749.1,-122 609.9,-122 609.9,-86 776.1,-86 776.1,-122"/>
<text text-anchor="middle" x="693" y="-99.8" font-family="Times,serif" font-size="14.00">DiscussionRoutingModule</text>
</g>
<!-- DiscussionRoutingModule&#45;&gt;DiscussionUiModule -->
<g id="edge5" class="edge">
<title>DiscussionRoutingModule&#45;&gt;DiscussionUiModule</title>
<path fill="none" stroke="black" d="M746.28,-122.11C746.28,-122.11 746.28,-140.99 746.28,-140.99"/>
<polygon fill="black" stroke="black" points="742.78,-140.99 746.28,-150.99 749.78,-140.99 742.78,-140.99"/>
</g>
<!-- ElementsModule -->
<g id="node7" class="node">
<title>ElementsModule</title>
<polygon fill="#8dd3c7" stroke="black" points="591.65,-122 588.65,-126 567.65,-126 564.65,-122 480.35,-122 480.35,-86 591.65,-86 591.65,-122"/>
<text text-anchor="middle" x="536" y="-99.8" font-family="Times,serif" font-size="14.00">ElementsModule</text>
</g>
<!-- ElementsModule&#45;&gt;DiscussionUiModule -->
<g id="edge6" class="edge">
<title>ElementsModule&#45;&gt;DiscussionUiModule</title>
<path fill="none" stroke="black" d="M558.1,-122.01C558.1,-138.05 558.1,-159 558.1,-159 558.1,-159 706.22,-159 706.22,-159"/>
<polygon fill="black" stroke="black" points="706.22,-162.5 716.22,-159 706.22,-155.5 706.22,-162.5"/>
</g>
<!-- DiscussionEventsService -->
<g id="node11" class="node">
<title>DiscussionEventsService</title>
<ellipse fill="#fdb462" stroke="black" cx="347" cy="-104" rx="108.8" ry="18"/>
<text text-anchor="middle" x="347" y="-99.8" font-family="Times,serif" font-size="14.00">DiscussionEventsService</text>
</g>
<!-- DiscussionEventsService&#45;&gt;DiscussionUiModule -->
<g id="edge10" class="edge">
<title>DiscussionEventsService&#45;&gt;DiscussionUiModule</title>
<path fill="none" stroke="black" d="M347,-122.27C347,-140.56 347,-166 347,-166 347,-166 706.2,-166 706.2,-166"/>
<polygon fill="black" stroke="black" points="706.2,-169.5 716.2,-166 706.2,-162.5 706.2,-169.5"/>
</g>
<!-- TelemetryUtilsService -->
<g id="node12" class="node">
<title>TelemetryUtilsService</title>
<ellipse fill="#fdb462" stroke="black" cx="122" cy="-104" rx="98.4" ry="18"/>
<text text-anchor="middle" x="122" y="-99.8" font-family="Times,serif" font-size="14.00">TelemetryUtilsService</text>
</g>
<!-- TelemetryUtilsService&#45;&gt;DiscussionUiModule -->
<g id="edge11" class="edge">
<title>TelemetryUtilsService&#45;&gt;DiscussionUiModule</title>
<path fill="none" stroke="black" d="M122,-122.13C122,-142.57 122,-173 122,-173 122,-173 706.27,-173 706.27,-173"/>
<polygon fill="black" stroke="black" points="706.27,-176.5 716.27,-173 706.27,-169.5 706.27,-176.5"/>
</g>
</g>
</svg>
