<?xml version="1.0" encoding="UTF-8" standalone="no"?>
<!DOCTYPE svg PUBLIC "-//W3C//DTD SVG 1.1//EN"
 "http://www.w3.org/Graphics/SVG/1.1/DTD/svg11.dtd">
<!-- Generated by graphviz version 2.47.0 (20210316.0004)
 -->
<!-- Title: dependencies Pages: 1 -->
<svg width="688pt" height="284pt"
 viewBox="0.00 0.00 688.00 284.00" xmlns="http://www.w3.org/2000/svg" xmlns:xlink="http://www.w3.org/1999/xlink">
<g id="graph0" class="graph" transform="scale(1 1) rotate(0) translate(4 280)">
<title>dependencies</title>
<polygon fill="white" stroke="transparent" points="-4,4 -4,-280 684,-280 684,4 -4,4"/>
<text text-anchor="start" x="319.01" y="-42.4" font-family="Times-12" font-weight="bold" font-size="14.00">Legend</text>
<polygon fill="#ffffb3" stroke="transparent" points="106,-10 106,-30 126,-30 126,-10 106,-10"/>
<text text-anchor="start" x="129.63" y="-15.4" font-family="Times-12" font-size="14.00"> &#160;Declarations</text>
<polygon fill="#8dd3c7" stroke="transparent" points="219,-10 219,-30 239,-30 239,-10 219,-10"/>
<text text-anchor="start" x="242.73" y="-15.4" font-family="Times-12" font-size="14.00"> &#160;Module</text>
<polygon fill="#80b1d3" stroke="transparent" points="305,-10 305,-30 325,-30 325,-10 305,-10"/>
<text text-anchor="start" x="328.78" y="-15.4" font-family="Times-12" font-size="14.00"> &#160;Bootstrap</text>
<polygon fill="#fdb462" stroke="transparent" points="402,-10 402,-30 422,-30 422,-10 402,-10"/>
<text text-anchor="start" x="425.67" y="-15.4" font-family="Times-12" font-size="14.00"> &#160;Providers</text>
<polygon fill="#fb8072" stroke="transparent" points="498,-10 498,-30 518,-30 518,-10 498,-10"/>
<text text-anchor="start" x="521.73" y="-15.4" font-family="Times-12" font-size="14.00"> &#160;Exports</text>
<g id="clust1" class="cluster">
<title>cluster_PipesModule</title>
<polygon fill="none" stroke="black" stroke-dasharray="1,5" points="8,-70 8,-268 672,-268 672,-70 8,-70"/>
</g>
<g id="clust9" class="cluster">
<title>cluster_PipesModule_exports</title>
<polygon fill="none" stroke="black" points="16,-208 16,-260 664,-260 664,-208 16,-208"/>
</g>
<g id="clust2" class="cluster">
<title>cluster_PipesModule_declarations</title>
<polygon fill="none" stroke="black" points="26,-78 26,-130 656,-130 656,-78 26,-78"/>
</g>
<!-- PipeFilterPipe -->
<g id="node1" class="node">
<title>PipeFilterPipe</title>
<polygon fill="#ffffb3" stroke="black" points="648.11,-122 551.89,-122 551.89,-86 648.11,-86 648.11,-122"/>
<text text-anchor="middle" x="600" y="-99.8" font-family="Times,serif" font-size="14.00">PipeFilterPipe</text>
</g>
<!-- PipesModule -->
<g id="node6" class="node">
<title>PipesModule</title>
<polygon fill="#8dd3c7" stroke="black" points="371.88,-187 368.88,-191 347.88,-191 344.88,-187 282.12,-187 282.12,-151 371.88,-151 371.88,-187"/>
<text text-anchor="middle" x="327" y="-164.8" font-family="Times,serif" font-size="14.00">PipesModule</text>
</g>
<!-- PipeFilterPipe&#45;&gt;PipesModule -->
<g id="edge1" class="edge">
<title>PipeFilterPipe&#45;&gt;PipesModule</title>
<path fill="none" stroke="black" d="M617.43,-122.27C617.43,-140.56 617.43,-166 617.43,-166 617.43,-166 382.06,-166 382.06,-166"/>
<polygon fill="black" stroke="black" points="382.06,-162.5 372.06,-166 382.06,-169.5 382.06,-162.5"/>
</g>
<!-- PipeListFilterPipe -->
<g id="node2" class="node">
<title>PipeListFilterPipe</title>
<polygon fill="#ffffb3" stroke="black" points="533.88,-122 416.12,-122 416.12,-86 533.88,-86 533.88,-122"/>
<text text-anchor="middle" x="475" y="-99.8" font-family="Times,serif" font-size="14.00">PipeListFilterPipe</text>
</g>
<!-- PipeListFilterPipe&#45;&gt;PipesModule -->
<g id="edge2" class="edge">
<title>PipeListFilterPipe&#45;&gt;PipesModule</title>
<path fill="none" stroke="black" d="M495.06,-122.01C495.06,-138.05 495.06,-159 495.06,-159 495.06,-159 382.04,-159 382.04,-159"/>
<polygon fill="black" stroke="black" points="382.04,-155.5 372.04,-159 382.04,-162.5 382.04,-155.5"/>
</g>
<!-- PipeRelativeTimePipe -->
<g id="node3" class="node">
<title>PipeRelativeTimePipe</title>
<polygon fill="#ffffb3" stroke="black" points="397.98,-122 256.02,-122 256.02,-86 397.98,-86 397.98,-122"/>
<text text-anchor="middle" x="327" y="-99.8" font-family="Times,serif" font-size="14.00">PipeRelativeTimePipe</text>
</g>
<!-- PipeRelativeTimePipe&#45;&gt;PipesModule -->
<g id="edge3" class="edge">
<title>PipeRelativeTimePipe&#45;&gt;PipesModule</title>
<path fill="none" stroke="black" d="M327,-122.11C327,-122.11 327,-140.99 327,-140.99"/>
<polygon fill="black" stroke="black" points="323.5,-140.99 327,-150.99 330.5,-140.99 323.5,-140.99"/>
</g>
<!-- SortByPipe -->
<g id="node4" class="node">
<title>SortByPipe</title>
<polygon fill="#ffffb3" stroke="black" points="238.06,-122 157.94,-122 157.94,-86 238.06,-86 238.06,-122"/>
<text text-anchor="middle" x="198" y="-99.8" font-family="Times,serif" font-size="14.00">SortByPipe</text>
</g>
<!-- SortByPipe&#45;&gt;PipesModule -->
<g id="edge4" class="edge">
<title>SortByPipe&#45;&gt;PipesModule</title>
<path fill="none" stroke="black" d="M209.93,-122.01C209.93,-138.05 209.93,-159 209.93,-159 209.93,-159 272.07,-159 272.07,-159"/>
<polygon fill="black" stroke="black" points="272.07,-162.5 282.07,-159 272.07,-155.5 272.07,-162.5"/>
</g>
<!-- SplitInitialsPipe -->
<g id="node5" class="node">
<title>SplitInitialsPipe</title>
<polygon fill="#ffffb3" stroke="black" points="140.22,-122 33.78,-122 33.78,-86 140.22,-86 140.22,-122"/>
<text text-anchor="middle" x="87" y="-99.8" font-family="Times,serif" font-size="14.00">SplitInitialsPipe</text>
</g>
<!-- SplitInitialsPipe&#45;&gt;PipesModule -->
<g id="edge5" class="edge">
<title>SplitInitialsPipe&#45;&gt;PipesModule</title>
<path fill="none" stroke="black" d="M100.54,-122.27C100.54,-140.56 100.54,-166 100.54,-166 100.54,-166 271.99,-166 271.99,-166"/>
<polygon fill="black" stroke="black" points="271.99,-169.5 281.99,-166 271.99,-162.5 271.99,-169.5"/>
</g>
<!-- PipeFilterPipe  -->
<g id="node7" class="node">
<title>PipeFilterPipe </title>
<polygon fill="#fb8072" stroke="black" points="655.61,-252 556.39,-252 556.39,-216 655.61,-216 655.61,-252"/>
<text text-anchor="middle" x="606" y="-229.8" font-family="Times,serif" font-size="14.00">PipeFilterPipe </text>
</g>
<!-- PipesModule&#45;&gt;PipeFilterPipe  -->
<g id="edge6" class="edge">
<title>PipesModule&#45;&gt;PipeFilterPipe </title>
<path fill="none" stroke="black" stroke-dasharray="5,2" d="M371.96,-173C446.32,-173 586.82,-173 586.82,-173 586.82,-173 586.82,-205.7 586.82,-205.7"/>
<polygon fill="black" stroke="black" points="583.32,-205.7 586.82,-215.7 590.32,-205.7 583.32,-205.7"/>
</g>
<!-- PipeListFilterPipe  -->
<g id="node8" class="node">
<title>PipeListFilterPipe </title>
<polygon fill="#fb8072" stroke="black" points="538.88,-252 417.12,-252 417.12,-216 538.88,-216 538.88,-252"/>
<text text-anchor="middle" x="478" y="-229.8" font-family="Times,serif" font-size="14.00">PipeListFilterPipe </text>
</g>
<!-- PipesModule&#45;&gt;PipeListFilterPipe  -->
<g id="edge7" class="edge">
<title>PipesModule&#45;&gt;PipeListFilterPipe </title>
<path fill="none" stroke="black" stroke-dasharray="5,2" d="M372.18,-180C409.44,-180 456.19,-180 456.19,-180 456.19,-180 456.19,-205.72 456.19,-205.72"/>
<polygon fill="black" stroke="black" points="452.69,-205.72 456.19,-215.72 459.69,-205.72 452.69,-205.72"/>
</g>
<!-- PipeRelativeTimePipe  -->
<g id="node9" class="node">
<title>PipeRelativeTimePipe </title>
<polygon fill="#fb8072" stroke="black" points="399.98,-252 254.02,-252 254.02,-216 399.98,-216 399.98,-252"/>
<text text-anchor="middle" x="327" y="-229.8" font-family="Times,serif" font-size="14.00">PipeRelativeTimePipe </text>
</g>
<!-- PipesModule&#45;&gt;PipeRelativeTimePipe  -->
<g id="edge8" class="edge">
<title>PipesModule&#45;&gt;PipeRelativeTimePipe </title>
<path fill="none" stroke="black" stroke-dasharray="5,2" d="M327,-187.11C327,-187.11 327,-205.99 327,-205.99"/>
<polygon fill="black" stroke="black" points="323.5,-205.99 327,-215.99 330.5,-205.99 323.5,-205.99"/>
</g>
<!-- SortByPipe  -->
<g id="node10" class="node">
<title>SortByPipe </title>
<polygon fill="#fb8072" stroke="black" points="236.06,-252 151.94,-252 151.94,-216 236.06,-216 236.06,-252"/>
<text text-anchor="middle" x="194" y="-229.8" font-family="Times,serif" font-size="14.00">SortByPipe </text>
</g>
<!-- PipesModule&#45;&gt;SortByPipe  -->
<g id="edge9" class="edge">
<title>PipesModule&#45;&gt;SortByPipe </title>
<path fill="none" stroke="black" stroke-dasharray="5,2" d="M282.09,-180C240.1,-180 183.82,-180 183.82,-180 183.82,-180 183.82,-205.72 183.82,-205.72"/>
<polygon fill="black" stroke="black" points="180.32,-205.72 183.82,-215.72 187.32,-205.72 180.32,-205.72"/>
</g>
<!-- SplitInitialsPipe  -->
<g id="node11" class="node">
<title>SplitInitialsPipe </title>
<polygon fill="#fb8072" stroke="black" points="133.72,-252 24.28,-252 24.28,-216 133.72,-216 133.72,-252"/>
<text text-anchor="middle" x="79" y="-229.8" font-family="Times,serif" font-size="14.00">SplitInitialsPipe </text>
</g>
<!-- PipesModule&#45;&gt;SplitInitialsPipe  -->
<g id="edge10" class="edge">
<title>PipesModule&#45;&gt;SplitInitialsPipe </title>
<path fill="none" stroke="black" stroke-dasharray="5,2" d="M282.05,-173C207.69,-173 67.21,-173 67.21,-173 67.21,-173 67.21,-205.7 67.21,-205.7"/>
<polygon fill="black" stroke="black" points="63.71,-205.7 67.21,-215.7 70.71,-205.7 63.71,-205.7"/>
</g>
</g>
</svg>
